<svg width="109" height="41" viewBox="0 0 109 41" fill="none" xmlns="http://www.w3.org/2000/svg">
<path d="M56.3913 12.5838C56.2213 11.0431 55.4916 9.84617 54.2022 8.99305C52.9128 8.13994 51.1629 7.71338 48.9524 7.71338C47.4505 7.71338 46.1824 7.90438 45.148 8.28637C44.1137 8.65563 43.3202 9.17132 42.7676 9.83344C42.2291 10.4956 41.9599 11.2468 41.9599 12.0872C41.9316 12.7875 42.0945 13.3987 42.4488 13.9208C42.8172 14.4428 43.3202 14.8948 43.9578 15.2768C44.5954 15.6461 45.3322 15.9708 46.1682 16.2509C47.0042 16.5183 47.8968 16.7475 48.8462 16.9385L52.7569 17.7789C54.6556 18.1609 56.3984 18.6702 57.9854 19.3068C59.5723 19.9435 60.9467 20.7266 62.1086 21.6561C63.2705 22.5856 64.1702 23.6807 64.8078 24.9412C65.4596 26.2018 65.7926 27.647 65.8068 29.2768C65.7926 31.6707 65.1125 33.7462 63.7664 35.5033C62.4345 37.2478 60.5075 38.6038 57.9854 39.5715C55.4774 40.5265 52.4523 41.004 48.9099 41.004C45.396 41.004 42.3354 40.5202 39.7283 39.5524C37.1353 38.5847 35.1091 37.1523 33.6497 35.255C32.2044 33.3451 31.4463 30.9831 31.3755 28.1691H40.2809C40.3801 29.4806 40.798 30.5756 41.5348 31.4542C42.2858 32.3201 43.2847 32.9758 44.5316 33.4215C45.7927 33.8544 47.2167 34.0709 48.8037 34.0709C50.3623 34.0709 51.7155 33.8671 52.8632 33.4597C54.025 33.0522 54.9248 32.4856 55.5624 31.7598C56.2 31.034 56.5188 30.2 56.5188 29.2577C56.5188 28.3792 56.2284 27.6406 55.6474 27.0422C55.0807 26.4437 54.2447 25.9344 53.1395 25.5142C52.0484 25.094 50.7094 24.712 49.1225 24.3682L44.3829 23.2987C40.713 22.4965 37.8154 21.2423 35.69 19.536C33.5646 17.8298 32.509 15.5315 32.5232 12.6411C32.509 10.2727 33.2104 8.2036 34.6273 6.43371C36.0584 4.66381 38.0209 3.28227 40.5147 2.28909C43.0084 1.29591 45.8423 0.799316 49.0162 0.799316C52.2468 0.799316 55.0665 1.29591 57.4753 2.28909C59.8982 3.28227 61.7827 4.66381 63.1288 6.43371C64.4749 8.2036 65.1692 10.2536 65.2117 12.5838H56.3913Z" fill="white"/>
<path d="M0.80127 40.3692V1.31323H29.5773V8.12133H9.99008V17.4276H27.6674V24.2357H9.99008V40.3692H0.80127Z" fill="white"/>
<path d="M102.785 8.88475H100.071C99.7797 6.72789 98.7256 4.74665 97.0995 3.30015C95.4733 1.85365 93.3828 1.03763 91.2067 1C89.0306 1.03763 86.94 1.85365 85.3139 3.30015C83.6877 4.74665 82.6337 6.72789 82.3427 8.88475H79.6301C78.1376 8.88574 76.7064 9.47893 75.6508 10.5341C74.5953 11.5893 74.0015 13.0202 74 14.5127V35.0317C74.0013 36.5241 74.5947 37.9549 75.6498 39.0103C76.7049 40.0656 78.1356 40.6593 79.6279 40.661H102.784C104.276 40.6597 105.708 40.0663 106.763 39.0108C107.818 37.9554 108.412 36.5243 108.413 35.0317V14.5127C108.412 13.0204 107.818 11.5897 106.763 10.5346C105.708 9.47944 104.277 8.88609 102.785 8.88475ZM91.2067 3.92434C92.6093 3.95483 93.9595 4.46306 95.0341 5.36502C96.1087 6.26698 96.8433 7.50865 97.1165 8.88475H85.2968C85.57 7.50865 86.3046 6.26698 87.3792 5.36502C88.4538 4.46306 89.8041 3.95483 91.2067 3.92434ZM105.488 35.0317C105.487 35.7487 105.202 36.436 104.695 36.9431C104.189 37.4502 103.501 37.7355 102.784 37.7367H79.6287C78.9119 37.7355 78.2247 37.45 77.7179 36.943C77.2112 36.4359 76.9262 35.7486 76.9254 35.0317V14.5127C76.9262 13.7959 77.2114 13.1087 77.7182 12.6019C78.225 12.0951 78.9122 11.8099 79.629 11.8091H102.785C103.502 11.8101 104.189 12.0953 104.695 12.6021C105.202 13.1089 105.487 13.796 105.488 14.5127V35.0317Z" fill="white"/>
</svg>
